 <svg version="1.0" xmlns="http://www.w3.org/2000/svg"  width="300.000000pt" height="316.000000pt" viewBox="0 0 300.000000 316.000000"  preserveAspectRatio="xMidYMid meet">  <g transform="translate(0.000000,316.000000) scale(0.100000,-0.100000)" fill="#292929" stroke="none"><path fill="#292929" d="M1210 2865 c-412 -60 -764 -356 -888 -745 -45 -139 -55 -221 -49 -408 3 -140 9 -193 26 -252 27 -95 82 -206 135 -269 160 -191 467 -230 746 -93 l75 37 -40 3 c-62 5 -164 -4 -235 -21 -241 -59 -447 37 -551 258 -108 229 -103 559 12 822 48 109 103 187 203 291 127 131 277 220 453 269 88 24 115 27 263 27 150 1 174 -2 261 -27 110 -31 165 -54 253 -105 70 -41 177 -124 222 -173 107 -117 198 -281 242 -437 24 -88 27 -112 27 -262 -1 -139 -4 -178 -24 -250 -24 -90 -92 -243 -143 -323 -30 -48 -31 -49 -12 -67 21 -20 214 -124 307 -164 64 -29 76 -19 20 15 -21 13 -41 27 -44 31 -3 5 -12 6 -20 3 -10 -4 -15 1 -15 15 0 20 12 25 40 14 9 -3 13 -10 10 -15 -3 -5 2 -9 10 -9 9 0 31 -9 51 -20 19 -11 35 -17 35 -14 0 3 7 -2 16 -10 8 -9 24 -16 35 -16 11 0 19 -7 19 -16 0 -10 6 -14 14 -11 8 3 21 -2 30 -12 14 -15 14 -20 3 -30 -8 -6 -22 -9 -30 -5 -9 3 -21 3 -28 -1 -6 -4 -45 -9 -88 -11 -42 -2 -119 -8 -171 -14 -90 -9 -145 -13 -385 -26 -64 -3 -120 -12 -155 -26 -30 -11 -63 -20 -73 -20 -9 1 -15 -3 -12 -9 4 -5 -4 -9 -17 -9 -13 0 -28 -4 -33 -9 -22 -19 -198 -53 -280 -52 -33 0 -44 -3 -35 -10 13 -7 13 -9 -1 -9 -8 0 -23 -8 -32 -17 -8 -10 -31 -35 -50 -56 -63 -69 -142 -69 -209 0 -30 31 -37 46 -39 83 -3 95 41 145 140 157 54 7 131 -41 131 -80 0 -11 3 -18 6 -14 8 8 44 -25 37 -36 -6 -10 92 -1 142 13 17 4 50 11 75 14 46 7 195 60 217 78 9 7 286 36 608 62 33 2 60 5 60 6 0 1 7 3 15 5 8 2 26 8 40 14 20 8 15 9 -30 5 -30 -2 -194 -16 -363 -30 -288 -24 -313 -27 -372 -54 -79 -35 -214 -70 -312 -79 l-76 -7 -12 30 c-8 17 -26 43 -42 57 -113 104 -296 28 -296 -124 0 -66 22 -109 75 -147 83 -61 212 -31 254 58 l19 39 97 12 c107 13 238 48 325 87 55 24 189 38 833 90 93 7 110 15 110 50 0 20 -30 39 -234 144 l-235 121 26 37 c118 174 178 435 153 672 -27 253 -144 496 -328 678 -95 94 -276 203 -417 252 -147 51 -338 68 -495 45z m295 -42 c-8 -8 -18 -12 -22 -10 -18 11 -185 17 -220 8 -21 -5 -68 -12 -106 -15 -64 -6 -194 -49 -209 -71 -4 -5 -8 -6 -8 -2 0 4 -30 -8 -67 -28 -71 -37 -93 -44 -73 -21 6 8 19 12 27 9 11 -4 14 -2 9 5 -5 8 0 12 12 12 11 0 22 7 26 15 3 8 14 15 25 15 11 0 37 9 58 21 21 12 48 23 62 25 13 3 36 11 52 20 16 8 53 15 83 17 30 1 52 5 50 9 -2 3 68 6 155 6 140 0 158 -2 146 -15z m131 -14 c3 -6 15 -9 25 -6 12 3 17 1 12 -6 -4 -6 2 -8 16 -4 12 3 27 -1 35 -9 8 -8 18 -14 21 -14 4 0 21 -6 38 -14 18 -7 45 -18 60 -25 16 -6 25 -16 22 -22 -4 -6 -1 -9 6 -7 17 3 79 -21 79 -32 0 -21 -41 -15 -60 9 -8 9 -110 57 -155 72 -22 7 -49 19 -60 26 -11 7 -27 13 -37 13 -10 0 -18 5 -18 11 0 6 -9 9 -20 6 -11 -3 -18 -1 -14 4 7 13 41 11 50 -2z m339 -159 c-3 -5 0 -10 8 -10 7 0 25 -12 39 -27 15 -16 42 -39 62 -53 19 -14 36 -33 36 -42 0 -12 8 -18 21 -18 14 0 19 -5 16 -14 -3 -8 5 -18 19 -25 15 -6 24 -19 24 -32 0 -12 3 -20 6 -16 4 3 12 1 18 -6 17 -17 79 -125 96 -167 8 -19 20 -41 27 -48 7 -7 13 -24 13 -37 0 -13 7 -36 14 -52 33 -63 50 -175 48 -318 -1 -121 -5 -193 -13 -202 -2 -4 -4 -13 -13 -68 -4 -27 -17 -65 -29 -84 -11 -19 -22 -42 -23 -50 -6 -38 -11 -53 -25 -70 -8 -9 -15 -24 -17 -32 -2 -8 -10 -21 -18 -30 -8 -8 -14 -21 -14 -27 0 -7 -4 -12 -9 -12 -27 0 16 -65 50 -75 11 -4 17 -10 14 -15 -6 -9 18 -20 44 -20 16 0 56 -38 48 -46 -7 -7 -37 7 -37 17 0 5 -5 9 -11 9 -5 0 -8 -4 -5 -9 4 -5 -3 -7 -14 -4 -10 3 -18 10 -17 15 1 6 -6 12 -15 13 -9 2 -37 17 -63 35 -37 25 -44 34 -35 45 7 8 9 18 6 23 -3 6 1 15 9 22 8 7 15 19 15 27 0 7 7 16 15 19 8 4 15 12 15 20 0 8 4 22 9 32 23 43 54 116 54 128 0 7 4 11 8 9 4 -3 9 2 13 10 3 8 1 17 -5 20 -5 4 -7 11 -3 16 3 5 10 6 16 3 8 -5 9 8 6 39 -3 28 -1 48 5 50 15 5 23 327 9 327 -6 0 -9 7 -5 16 6 16 -16 124 -27 134 -3 3 -11 28 -18 55 -7 28 -17 52 -23 53 -5 2 -9 14 -9 26 0 12 -4 26 -9 32 -6 5 -24 36 -42 69 -17 33 -35 62 -38 65 -4 3 -21 25 -39 50 -17 25 -42 56 -56 69 -15 13 -26 27 -26 33 0 5 -4 6 -10 3 -5 -3 -10 2 -10 11 0 10 -3 15 -6 11 -6 -5 -37 19 -95 75 -26 24 -28 38 -7 38 5 0 6 -4 3 -10z m-1295 -81 c-63 -52 -68 -57 -78 -75 -9 -15 -13 -17 -23 -6 -11 10 -11 12 0 12 7 0 9 4 6 10 -3 5 0 7 9 4 9 -3 17 2 21 15 3 11 15 23 26 26 10 4 19 13 19 20 0 8 6 12 14 9 7 -3 16 3 20 12 4 9 10 14 14 10 4 -4 -9 -21 -28 -37z m-136 -138 c3 -5 -1 -15 -10 -22 -9 -7 -20 -24 -25 -37 -5 -13 -14 -20 -20 -16 -8 4 -7 9 2 15 12 7 11 9 -1 9 -12 1 -11 3 3 11 9 6 14 15 11 21 -4 7 -2 8 4 4 7 -4 12 -1 12 8 0 17 15 22 24 7z m-104 -165 c0 -8 -4 -18 -10 -21 -5 -3 -10 -15 -10 -25 0 -11 -8 -27 -19 -37 -10 -10 -24 -41 -30 -69 -7 -28 -19 -68 -27 -90 l-15 -39 6 50 c3 28 9 51 15 53 5 2 7 9 4 16 -7 18 11 61 38 87 13 12 17 19 11 15 -8 -5 -13 -1 -13 9 0 9 4 14 9 11 5 -4 12 7 16 24 7 30 25 42 25 16z m-119 -452 c-3 -141 14 -328 29 -319 4 3 11 -17 15 -43 4 -26 22 -73 41 -105 19 -32 34 -60 34 -63 0 -18 136 -150 150 -146 7 3 10 0 6 -7 -5 -7 -1 -9 8 -5 9 4 16 1 16 -6 0 -7 7 -10 16 -6 9 3 12 2 9 -5 -4 -6 -1 -9 6 -8 8 1 32 -6 53 -15 30 -14 62 -17 140 -15 56 2 112 7 126 12 14 5 37 9 53 9 15 0 25 2 23 6 -2 4 9 8 25 9 63 5 33 -15 -55 -36 -85 -20 -252 -31 -275 -17 -4 3 -20 7 -35 10 -47 8 -126 37 -126 46 0 4 -13 13 -29 20 -16 6 -32 18 -35 27 -3 8 -10 12 -15 8 -6 -3 -15 5 -22 17 -7 13 -20 30 -31 39 -10 9 -18 21 -18 28 0 6 -4 11 -8 11 -9 0 -54 86 -59 115 -2 10 -8 22 -13 25 -5 3 -12 33 -16 65 -3 33 -11 63 -16 67 -7 4 -11 69 -11 180 0 213 2 262 11 253 4 -3 5 -71 3 -151z"/> <path fill="#292929" d="M785 1805 l0 -535 138 0 138 0 -1 269 c-1 225 -4 270 -16 275 -9 3 -14 -1 -14 -12 -1 -9 -2 -122 -4 -250 -2 -128 -6 -236 -9 -239 -12 -12 -177 -12 -184 0 -5 7 -9 219 -9 472 -1 253 -3 465 -5 470 -2 6 1 20 5 33 7 22 12 23 111 21 101 -1 104 -2 129 -30 14 -16 26 -33 26 -38 0 -17 -30 -5 -46 17 -13 19 -24 22 -90 22 -73 0 -75 -1 -94 -32 -19 -32 -20 -52 -20 -451 l0 -418 25 -23 c30 -28 84 -29 115 -1 19 18 20 28 20 341 0 202 4 325 10 329 6 4 7 -1 3 -11 -4 -12 -3 -15 6 -10 6 4 11 4 10 -1 -4 -23 2 -43 11 -38 6 3 13 -2 17 -12 4 -10 17 -35 31 -55 13 -20 21 -42 17 -48 -3 -6 -1 -9 5 -8 6 2 26 -22 43 -53 18 -30 45 -75 62 -100 16 -24 29 -48 30 -53 0 -13 22 -19 29 -8 4 8 -288 518 -311 542 -2 3 -3 -179 -1 -403 l3 -407 -45 0 -45 0 2 442 c2 244 3 445 3 448 0 3 32 4 70 2 l70 -4 134 -223 133 -224 120 202 c66 111 126 212 132 225 10 20 19 22 84 22 l72 0 0 -445 0 -445 -45 0 -45 0 3 407 2 408 -51 -90 c-28 -49 -83 -141 -122 -205 -109 -179 -137 -228 -137 -238 0 -6 -6 -12 -12 -15 -7 -2 -9 -8 -5 -13 5 -5 13 -1 18 9 6 9 14 15 18 13 4 -3 14 7 22 22 31 61 42 74 51 60 6 -9 7 -6 3 9 -4 15 1 28 15 41 12 11 23 27 24 37 1 9 7 20 13 23 5 4 22 32 37 62 43 90 73 133 81 120 4 -6 7 -145 6 -307 0 -162 2 -306 5 -319 7 -27 50 -54 87 -54 13 0 32 9 43 21 18 20 19 44 21 455 2 281 -1 434 -7 434 -6 0 -10 8 -10 19 0 16 -9 19 -82 20 -81 1 -83 1 -103 -28 -10 -16 -23 -27 -29 -24 -5 3 -6 1 -2 -6 4 -6 -5 -28 -21 -49 -16 -20 -34 -48 -41 -62 -7 -14 -21 -38 -32 -55 -10 -16 -28 -48 -40 -70 -39 -76 -47 -88 -53 -73 -4 9 -6 7 -6 -4 -1 -10 -6 -18 -12 -18 -5 0 -7 -6 -3 -12 4 -7 4 -10 -1 -6 -10 10 -32 46 -47 81 -7 15 -16 27 -20 27 -4 0 -8 6 -8 14 0 8 -4 16 -8 18 -5 2 -20 27 -34 56 -15 29 -29 47 -31 40 -4 -8 -6 -7 -6 4 -1 9 4 20 10 24 13 8 31 -16 24 -33 -2 -7 2 -10 9 -7 7 3 16 -2 20 -11 4 -11 2 -14 -7 -9 -6 4 0 -5 16 -21 15 -15 27 -34 27 -41 0 -8 4 -14 9 -14 5 0 18 -15 30 -32 11 -18 21 -28 21 -21 0 7 18 31 40 54 22 23 41 46 41 51 1 4 2 14 3 21 1 6 8 11 15 9 8 -2 11 3 8 13 -4 9 -1 15 9 15 10 0 14 6 10 15 -3 8 -1 15 4 15 6 0 10 7 10 15 0 8 5 15 11 15 5 0 7 5 4 10 -3 6 4 14 17 19 13 6 17 10 10 10 -9 1 -8 7 4 26 9 14 20 22 25 19 5 -3 9 -1 9 5 0 5 -6 11 -12 14 -7 2 0 11 17 20 22 11 60 15 132 16 101 0 101 0 106 -26 8 -44 2 -961 -6 -970 -5 -4 -51 -8 -103 -8 l-94 0 0 170 c-1 233 -5 317 -19 343 -6 12 -13 22 -14 22 -1 0 -2 -128 -2 -285 l0 -285 138 0 137 0 0 535 0 535 -144 0 -144 0 -78 -130 c-44 -71 -92 -154 -108 -185 l-29 -56 -22 43 c-12 24 -59 104 -104 178 -44 74 -81 138 -81 142 0 4 -66 8 -147 8 l-148 0 0 -535z m338 383 c9 -18 13 -36 10 -41 -3 -4 -6 -7 -7 -5 -2 2 -13 20 -25 41 -18 29 -19 37 -8 37 8 0 21 -14 30 -32z"/> <path fill="#292929" d="M1076 1817 c4 -12 53 -100 109 -195 l101 -172 101 167 c55 93 104 178 107 191 11 34 -17 28 -32 -8 -7 -16 -22 -32 -33 -35 -11 -4 -17 -10 -14 -15 7 -11 -22 -70 -33 -69 -19 3 -25 -2 -12 -11 12 -8 11 -12 -8 -30 -12 -11 -22 -30 -22 -41 0 -11 -5 -17 -10 -14 -6 4 -9 3 -8 -2 3 -12 -25 -53 -37 -53 -10 0 -16 8 -45 66 -8 16 -19 32 -24 35 -5 4 -5 12 -2 18 4 6 0 11 -9 11 -9 0 -13 5 -10 11 4 6 -1 19 -11 29 -23 23 -40 43 -41 50 -7 26 -20 49 -28 52 -5 2 -9 8 -7 14 1 7 -7 14 -18 17 -18 4 -20 2 -14 -16z"/> </g> </svg>